<?xml version="1.0" encoding="UTF-8" standalone="no"?>
<!-- Uploaded to: SVG Repo, www.svgrepo.com, Generator: SVG Repo Mixer Tools -->

<svg
   width="700"
   height="683.4574"
   viewBox="0 0 21 20.503722"
   fill="none"
   version="1.1"
   id="svg268"
   sodipodi:docname="github_outline_thick.svg"
   inkscape:version="1.1.2 (0a00cf5339, 2022-02-04)"
   xmlns:inkscape="http://www.inkscape.org/namespaces/inkscape"
   xmlns:sodipodi="http://sodipodi.sourceforge.net/DTD/sodipodi-0.dtd"
   xmlns="http://www.w3.org/2000/svg"
   xmlns:svg="http://www.w3.org/2000/svg">
  <defs
     id="defs272" />
  <sodipodi:namedview
     id="namedview270"
     pagecolor="#ffffff"
     bordercolor="#666666"
     borderopacity="1.0"
     inkscape:pageshadow="2"
     inkscape:pageopacity="0.0"
     inkscape:pagecheckerboard="0"
     showgrid="false"
     fit-margin-top="0"
     fit-margin-left="0"
     fit-margin-right="0"
     fit-margin-bottom="0"
     inkscape:zoom="0.9"
     inkscape:cx="-115"
     inkscape:cy="107.22222"
     inkscape:window-width="1368"
     inkscape:window-height="848"
     inkscape:window-x="0"
     inkscape:window-y="0"
     inkscape:window-maximized="1"
     inkscape:current-layer="svg268" />
  <path
     fill-rule="evenodd"
     clip-rule="evenodd"
     d="m 10.5,0.5 c -5.525,0 -10,4.475 -10,10 0,4.425 2.8625,8.1625 6.8375,9.4875 0.5,0.0875 0.6875,-0.2125 0.6875,-0.475 C 8.025,19.275 8.0125,18.4875 8.0125,17.65 5.5,18.1125 4.85,17.0375 4.65,16.475 4.5375,16.1875 4.05,15.3 3.625,15.0625 3.275,14.875 2.775,14.4125 3.6125,14.4 4.4,14.3875 4.9625,15.125 5.15,15.425 6.05,16.9375 7.4875,16.5125 8.0625,16.25 8.15,15.6 8.4125,15.1625 8.7,14.9125 6.475,14.6625 4.15,13.8 4.15,9.975 c 0,-1.0875 0.3875,-1.9875 1.025,-2.6875 -0.1,-0.25 -0.45,-1.275 0.1,-2.65 0,0 0.8375,-0.2625 2.75,1.025 0.8,-0.225 1.65,-0.3375 2.5,-0.3375 0.85,0 1.7,0.1125 2.5,0.3375 1.9125,-1.3 2.75,-1.025 2.75,-1.025 0.55,1.375 0.2,2.4 0.1,2.65 0.6375,0.7 1.025,1.5875 1.025,2.6875 0,3.8375 -2.3375,4.6875 -4.5625,4.9375 0.3625,0.3125 0.675,0.9125 0.675,1.85 0,1.3375 -0.0125,2.4125 -0.0125,2.75 0,0.2625 0.1875,0.575 0.6875,0.475 1.9852,-0.6702 3.7102,-1.946 4.9323,-3.648 1.2221,-1.7019 1.8797,-3.7442 1.8802,-5.8395 0,-5.525 -4.475,-10 -10,-10 z"
     stroke="#000000"
     stroke-linejoin="round"
     id="path266" />
</svg>
